# xmcd
# 
# Track frame offsets:
#     150
#     11527
#     26875
#     45022
#     66340
#     79182
#     95517
#     111080
#     126050
#     140900
#     157052
# 
# Disc length: 2293
# 
# Revision: 10
# Processed by: cddbd v1.5.2PL0 Copyright (c) Steve Scherf et al.
# Submitted via: BonkEnc v1.0.6
# 
DISCID=9108f30b
DTITLE=Mark Wills - Wish You Were Here
DYEAR=1998
DGENRE=Country
TTITLE0=Don't Think I Won't
TTITLE1=Emily Harper
TTITLE2=Wish You Were Here
TTITLE3=She's In Love
TTITLE4=Love Is Alive
TTITLE5=Don't Laugh At Me
TTITLE6=The Last Memory
TTITLE7=Help Me Fall
TTITLE8=It's Working
TTITLE9=Anywhere But Memphis
TTITLE10=I Do (Cherish You)
EXTD=
EXTT0=
EXTT1=
EXTT2=
EXTT3=
EXTT4=
EXTT5=
EXTT6=
EXTT7=
EXTT8=
EXTT9=
EXTT10=
PLAYORDER=
